<svg xmlns="http://www.w3.org/2000/svg" viewBox="0 0 23.8 23.8"><circle cx="11.9" cy="11.9" r="11.4" style="fill:#020030;stroke:#00404f;stroke-miterlimit:10"/><path d="M11.9,21.38a9.21,9.21,0,0,1-3.85-.69c-1-.46-1.5-1-1.5-1.76A1.58,1.58,0,0,1,7.1,17.8a3.86,3.86,0,0,1,1.5-.87L9,18.22a2.59,2.59,0,0,0-.65.31,3,3,0,0,0-.48.4,3.18,3.18,0,0,0,1.57.78,8.75,8.75,0,0,0,2.46.34,8.87,8.87,0,0,0,2.47-.34A3.22,3.22,0,0,0,16,18.93a3.32,3.32,0,0,0-.46-.38,3.22,3.22,0,0,0-.67-.33l.38-1.29a3.86,3.86,0,0,1,1.5.87,1.58,1.58,0,0,1,.55,1.13c0,.72-.5,1.3-1.5,1.76A9.21,9.21,0,0,1,11.9,21.38Z" style="fill:#ff0;stroke:#ff0;stroke-miterlimit:10"/><path d="M11.9,14.81a13.18,13.18,0,0,1,.86-1.39c.31-.42.61-.81.9-1.19.57-.74,1-1.37,1.35-1.9a3.92,3.92,0,0,0,.5-2.09A3.59,3.59,0,0,0,11.9,4.63,3.59,3.59,0,0,0,8.29,8.24a3.92,3.92,0,0,0,.5,2.09c.33.53.78,1.16,1.35,1.9.29.38.59.77.9,1.19A13.18,13.18,0,0,1,11.9,14.81Z" style="stroke:#ff0;stroke-miterlimit:10"/><path d="M11.9,18.24a.78.78,0,0,1-.47-.15.85.85,0,0,1-.29-.4A9.32,9.32,0,0,0,9.81,15L8.25,12.94a12.32,12.32,0,0,1-1.3-2,5.88,5.88,0,0,1-.53-2.64A5.27,5.27,0,0,1,8,4.38a5.29,5.29,0,0,1,3.89-1.6,5.28,5.28,0,0,1,3.89,1.59,5.3,5.3,0,0,1,1.59,3.89,5.88,5.88,0,0,1-.53,2.64,13.2,13.2,0,0,1-1.3,2L14,15a9.38,9.38,0,0,0-1.33,2.69.93.93,0,0,1-.29.41A.78.78,0,0,1,11.9,18.24Z" style="fill:#23ff07;stroke:#23ff07;stroke-miterlimit:10;stroke-width:1.2000000476837158px"/><path d="M11.91,12.1A3.52,3.52,0,0,0,14.49,11a3.56,3.56,0,0,0,1.06-2.59,3.52,3.52,0,0,0-1.07-2.58A3.56,3.56,0,0,0,11.89,4.8,3.49,3.49,0,0,0,9.31,5.88,3.53,3.53,0,0,0,8.25,8.46,3.52,3.52,0,0,0,9.32,11,3.56,3.56,0,0,0,11.91,12.1Z" style="fill:#020030;stroke:#ff0;stroke-miterlimit:10;stroke-width:2px"/></svg>